<svg width="490" height="490" viewBox="0 0 490 490" fill="none" xmlns="http://www.w3.org/2000/svg">
<g clip-path="url(#clip0)">
<path d="M101.64 329.532C99.378 327.27 95.715 327.271 93.452 329.532L42.597 380.386L34.932 372.722C32.672 370.46 29.007 370.462 26.746 372.723L1.697 397.77C-0.563999 400.03 -0.563999 403.695 1.697 405.955L84.022 488.279C86.284 490.542 89.944 490.541 92.207 488.278L117.254 463.231C119.517 460.971 119.517 457.306 117.258 455.045L109.589 447.377L160.445 396.522C162.706 394.258 162.704 390.594 160.445 388.335L101.64 329.532Z" fill="#E3E0FF"/>
<path d="M188.042 212.92C185.782 210.658 182.116 210.659 179.855 212.92L100.649 292.125C98.389 294.386 98.389 298.051 100.65 300.312L189.664 389.326C191.926 391.59 195.587 391.588 197.849 389.326L277.054 310.121C279.317 307.86 279.316 304.193 277.056 301.933L188.042 212.92Z" fill="#E3E0FF"/>
<path d="M454.026 164.947L389.528 100.45L305.939 16.861C303.679 14.599 300.014 14.602 297.753 16.863L272.704 41.909C270.443 44.169 270.444 47.834 272.705 50.095L287.703 65.094L183.61 169.187C181.349 171.448 181.349 175.114 183.61 177.374L312.603 306.367C314.864 308.629 318.526 308.629 320.789 306.366L424.884 202.271L439.883 217.271C442.145 219.534 445.806 219.534 448.069 217.271L473.116 192.223C475.378 189.964 475.378 186.298 473.119 184.038L454.026 164.947Z" fill="#E3E0FF"/>
<path d="M444.682 45.294C403.222 3.835 351.881 -12.049 330.012 9.82L480.156 159.963C502.025 138.094 486.141 86.754 444.682 45.294Z" fill="#E3E0FF"/>
</g>
<defs>
<clipPath id="clip0">
<rect width="489.976" height="489.976" fill="white"/>
</clipPath>
</defs>
</svg>
